<svg width="105" height="100" viewBox="0 0 105 100" fill="none" xmlns="http://www.w3.org/2000/svg">
<path d="M25.7647 16.7161C25.3777 17.3628 25.8984 17.9861 26.4989 17.9734C26.9328 17.9646 27.3819 18.0242 27.8284 18.16C28.2747 18.2962 28.6804 18.4973 29.0357 18.747C29.5268 19.0921 30.307 18.8659 30.3469 18.1131C30.4182 16.7539 29.7902 15.5636 28.7195 15.2376C27.6492 14.9109 26.4633 15.5477 25.7647 16.7161V16.7161Z" fill="#FBD10D"/>
<path d="M70.6941 19.1543C71.0998 18.9993 71.543 18.9037 72.0085 18.8815C72.4749 18.8589 72.9251 18.9114 73.3433 19.0264C73.9224 19.1859 74.5805 18.71 74.3633 17.9879C73.9732 16.6844 72.9797 15.7756 71.8618 15.8296C70.7441 15.8832 69.8432 16.8827 69.579 18.2182C69.4326 18.9577 70.1332 19.3684 70.6941 19.1543Z" fill="#FBD10D"/>
<path d="M89.5173 71.3313C90.164 70.3238 90.4934 69.1589 90.4934 67.999C90.4934 64.6761 87.9076 61.6684 83.3518 61.3629C83.2876 61.3463 83.2216 61.3336 83.155 61.3262C77.0636 55.0793 74.2704 39.9484 75.9269 30.8565C81.4698 30.424 85.3683 27.168 86.8247 21.6088C87.4681 19.151 86.3265 17.2574 83.9633 16.8076C82.804 16.587 82.0343 15.8991 81.6088 14.705C81.5951 14.6669 81.5803 14.6295 81.5637 14.5928C79.3281 9.63667 75.457 9.02274 72.891 8.79553C72.891 8.78603 72.9005 8.76633 72.891 8.76663C71.9632 8.82024 70.8131 8.81644 71.4274 8.13511C73.0656 6.31834 72.8265 3.75383 73.0156 3.09311C73.4323 1.63365 71.8839 0.680412 70.724 0.872019C65.9222 3.49442 59.1625 9.85288 55.3301 17.0382C54.8986 18.0468 54.1648 19.7768 53.2473 21.9982C52.0817 19.1993 49.7089 12.4546 42.871 8.90274C39.8594 7.33788 36.8992 6.84636 33.8058 7.03836C31.2238 7.19567 25.8558 7.52128 22.9617 14.0091C22.8731 14.097 22.169 14.694 19.1218 15.0203C17.252 15.221 15.5184 15.2045 15.5008 15.2041C15.4951 15.2041 15.4895 15.2041 15.4835 15.2041C14.6742 15.2041 14.0128 15.8553 14.0023 16.6667C13.894 25.0741 17.6838 28.7362 20.5264 30.2983C20.53 30.3004 20.5335 30.3032 20.5374 30.3054C22.249 31.3362 24.4116 31.5788 26.4179 31.5788C27.5062 31.5788 28.4968 31.5082 29.2352 31.4341C29.7915 34.9486 30.8268 49.1651 23.7883 61.3665C19.2706 61.702 16.7271 64.7099 16.7271 67.9988C16.7271 69.1587 17.0566 70.3236 17.7032 71.3311C17.7032 71.3311 19.3003 74.2937 24.1764 74.2937C25.0276 74.2937 38.2433 74.2937 40.0972 74.2937C40.9153 74.2937 41.5789 73.6305 41.5789 72.8122C41.5789 71.9944 40.9152 71.3312 40.0972 71.3312C38.2526 71.3312 25.3084 71.3312 23.6875 71.3312C20.9263 71.3312 19.6902 69.657 19.6902 67.9989C19.6902 65.8875 21.5342 64.3969 24.3698 64.3077C25.67 64.5964 27.2449 65.3341 27.8919 67.1784C28.1632 67.952 29.01 68.3563 29.7807 68.0861C30.5526 67.8152 30.959 66.9699 30.688 66.1973C30.0206 64.2944 28.6777 62.859 26.8217 62.0149C33.4171 49.9683 32.9184 36.0858 32.1994 31.3335C32.0661 30.4561 31.7221 29.3559 31.6537 29.2027C31.3856 28.6001 30.7357 28.2354 30.0623 28.3465C28.7744 28.5571 25.2691 28.9257 22.8417 28.1119C22.7711 28.0879 22.703 28.0632 22.637 28.0382C19.9817 26.881 18.2249 24.6063 17.4382 21.3611C18.3998 21.1431 19.7933 20.3589 20.6999 17.7991C23.4962 17.356 25.0829 16.5362 25.6551 15.2461C27.0214 12.1625 28.9688 10.9097 31.1204 10.3735C32.2334 10.0962 35.101 9.70777 37.5391 11.3405C38.2217 11.7971 38.7706 12.545 39.1005 13.5002C39.6519 15.0947 39.2532 16.8771 37.9782 18.5177C34.6741 22.7705 33.8402 24.9401 34.145 27.7616C34.3373 29.5403 35.3067 30.9987 36.8748 31.8679C39.0289 33.0624 41.8504 33.1022 44.003 31.7734C46.3211 30.3425 47.6642 27.7954 48.3149 23.5017C48.3163 23.4936 48.3185 23.4862 48.3199 23.4781C47.7568 22.0374 46.8644 20.0575 45.7668 18.6785C45.8522 19.8749 46.0255 21.3836 45.6733 22.9806C44.965 26.187 44.5155 27.7953 42.7128 29.1056C41.3184 30.1188 39.4747 29.9216 38.3119 29.2768C37.5898 28.8763 37.1795 28.2589 37.0913 27.4434C36.9262 25.9176 37.097 24.4815 40.3182 20.3356C42.3477 17.7236 42.9905 14.4111 41.4454 11.4886C41.8165 11.6784 42.2451 11.9287 42.648 12.2201V12.2193C42.648 12.2193 44.7142 13.5281 46.8764 16.3132C47.5033 17.1208 49.7011 20.017 51.659 25.894C47.1787 37.0199 38.6144 65.6092 38.6144 72.7117C38.6144 72.7453 38.6154 72.7787 38.6157 72.8123H41.5791C41.5788 72.7787 41.5778 72.7453 41.5778 72.7117C41.5778 65.2046 52.0164 32.927 54.8517 25.9271C54.8509 25.9257 54.8499 25.9243 54.8495 25.9229C56.4314 22.0174 57.6573 19.1326 58.0549 18.2038C60.1557 13.292 64.4024 7.987 69.5755 6.08233C65.7098 9.78468 67.0941 11.7237 68.5086 11.7237C70.4193 11.7237 70.8052 11.7237 72.3391 11.7237C74.7203 11.9198 77.2064 12.1876 78.8394 15.7611C79.4811 17.5123 80.6825 18.77 82.2839 19.3956C81.9375 20.2652 81.6701 21.7563 83.3913 22.5349C82.0879 25.6122 79.2318 28.4799 73.0447 27.8615C72.2276 27.779 71.5045 28.3745 71.4237 29.1887C71.3422 30.0032 71.9363 30.7288 72.7504 30.8099C72.8097 30.8159 72.8679 30.8191 72.9272 30.8247C72.1638 35.5509 72.4411 41.7365 73.7016 47.6336C75.0117 53.7619 77.2287 58.8605 80.0332 62.2748C78.4457 63.1398 77.2893 64.4768 76.6857 66.1972C76.3459 67.165 77.0688 68.1696 78.0833 68.1696C78.6946 68.1696 79.2673 67.7883 79.4817 67.1783C80.1252 65.3431 81.6866 64.6044 82.9834 64.3122C89.1087 64.5998 88.8438 71.3311 83.5333 71.3311C81.0607 71.3311 68.9598 71.3311 66.5419 71.3311C65.7237 71.3311 65.0606 71.9944 65.0606 72.8121C65.0606 73.6305 65.7238 74.2937 66.5419 74.2937C68.962 74.2937 78.8471 74.2937 83.5333 74.2937C88.2193 74.2937 89.5176 71.331 89.5176 71.331L89.5173 71.3313ZM68.1144 72.7149C68.1147 72.6813 68.1157 72.6479 68.1157 72.6143C68.1157 68.769 63.7078 49.5615 59.1895 37.2319C58.1564 34.4146 57.1091 31.6621 56.127 29.1507L54.6217 33.4349C57.619 41.2935 65.1295 65.0778 65.0604 72.8122L68.1145 72.7148L68.1144 72.7149Z" fill="#FBD10D"/>
<path fill-rule="evenodd" clip-rule="evenodd" d="M46.5519 54.6039L61.064 54.6105L60.5893 57.177H45.8656L46.5519 54.6039Z" fill="#FBD10D"/>
<path d="M8.97765 91.6728H4.01731L3.07428 94.5019H0.0660122L5.17724 80.7714H7.79886L12.9384 94.5019H9.93011L8.97765 91.6728ZM4.78117 89.3812H8.2138L6.48805 84.2417L4.78117 89.3812ZM14.2209 94.5019V80.7714H18.4457C19.6528 80.7714 20.731 81.0449 21.6803 81.5918C22.6359 82.1325 23.3809 82.9058 23.9153 83.9117C24.4496 84.9113 24.7168 86.0492 24.7168 87.3254V87.9573C24.7168 89.2335 24.4528 90.3683 23.9247 91.3616C23.4029 92.3549 22.6642 93.1251 21.7086 93.672C20.753 94.219 19.6748 94.4956 18.474 94.5019H14.2209ZM17.05 83.0629V92.2292H18.4174C19.5239 92.2292 20.3695 91.8677 20.9541 91.1447C21.5388 90.4217 21.8374 89.3875 21.85 88.0421V87.316C21.85 85.9203 21.5608 84.8641 20.9824 84.1474C20.404 83.4244 19.5585 83.0629 18.4457 83.0629H17.05ZM38.0607 87.9478C38.0607 89.2995 37.8218 90.4846 37.344 91.5031C36.8662 92.5215 36.1809 93.3074 35.2882 93.8606C34.4018 94.4139 33.3833 94.6905 32.2328 94.6905C31.0949 94.6905 30.0795 94.417 29.1868 93.8701C28.2941 93.3231 27.6025 92.5435 27.1121 91.5314C26.6218 90.5129 26.3734 89.3435 26.3671 88.0233V87.3443C26.3671 85.9926 26.6092 84.8044 27.0933 83.7796C27.5837 82.7486 28.2721 81.9596 29.1585 81.4126C30.0512 80.8594 31.0697 80.5828 32.2139 80.5828C33.3581 80.5828 34.3735 80.8594 35.2599 81.4126C36.1527 81.9596 36.8411 82.7486 37.3252 83.7796C37.8155 84.8044 38.0607 85.9895 38.0607 87.3349V87.9478ZM35.1939 87.3254C35.1939 85.8857 34.9361 84.7918 34.4206 84.0437C33.9051 83.2956 33.1695 82.9215 32.2139 82.9215C31.2646 82.9215 30.5322 83.2924 30.0167 84.0343C29.5011 84.7698 29.2402 85.8512 29.234 87.2783V87.9478C29.234 89.3498 29.4917 90.4374 30.0072 91.2107C30.5228 91.984 31.2646 92.3707 32.2328 92.3707C33.1821 92.3707 33.9114 91.9997 34.4206 91.2579C34.9299 90.5097 35.1876 89.4221 35.1939 87.995V87.3254ZM45.1995 89.4755H42.9456V94.5019H40.1165V80.7714H45.2183C46.8403 80.7714 48.0914 81.1329 48.9716 81.8559C49.8518 82.5788 50.2918 83.6005 50.2918 84.9207C50.2918 85.8575 50.0875 86.6402 49.6789 87.2689C49.2765 87.8913 48.6635 88.3879 47.84 88.7588L50.8105 94.3699V94.5019H47.7739L45.1995 89.4755ZM42.9456 87.184H45.2278C45.9382 87.184 46.4883 87.0048 46.8781 86.6465C47.2678 86.2818 47.4627 85.782 47.4627 85.147C47.4627 84.4995 47.2773 83.9902 46.9064 83.6193C46.5417 83.2484 45.979 83.0629 45.2183 83.0629H42.9456V87.184ZM60.2031 91.6728H55.2427L54.2997 94.5019H51.2914L56.4027 80.7714H59.0243L64.1638 94.5019H61.1555L60.2031 91.6728ZM56.0066 89.3812H59.4392L57.7135 84.2417L56.0066 89.3812ZM58.2982 77.0936H61.2687L58.6565 80.0169H56.4404L58.2982 77.0936ZM69.7843 91.0976L72.8963 80.7714H76.046L71.2648 94.5019H68.3132L63.5508 80.7714H66.6911L69.7843 91.0976ZM85.6083 88.5514H80.1765V92.2292H86.5514V94.5019H77.3474V80.7714H86.5325V83.0629H80.1765V86.3353H85.6083V88.5514ZM91.2194 94.5019H88.3903V80.7714H91.2194V94.5019ZM100.97 90.8995C100.97 90.3651 100.782 89.9565 100.404 89.6736C100.027 89.3844 99.3483 89.0826 98.3675 88.7683C97.3868 88.4476 96.6104 88.1333 96.0383 87.8252C94.4791 86.9828 93.6995 85.848 93.6995 84.4209C93.6995 83.679 93.907 83.0189 94.3219 82.4405C94.7432 81.8559 95.3436 81.4001 96.1231 81.0731C96.909 80.7462 97.7891 80.5828 98.7636 80.5828C99.7444 80.5828 100.618 80.7619 101.385 81.1203C102.152 81.4724 102.746 81.9722 103.168 82.6197C103.595 83.2673 103.809 84.0028 103.809 84.8264H100.98C100.98 84.1977 100.782 83.7105 100.386 83.3647C99.9896 83.0126 99.4332 82.8366 98.7165 82.8366C98.0249 82.8366 97.4874 82.9844 97.1039 83.2798C96.7204 83.569 96.5286 83.9525 96.5286 84.4303C96.5286 84.8767 96.7518 85.2508 97.1982 85.5525C97.6508 85.8543 98.3141 86.1372 99.188 86.4013C100.797 86.8854 101.97 87.4858 102.705 88.2025C103.441 88.9192 103.809 89.8119 103.809 90.8807C103.809 92.0689 103.359 93.0025 102.46 93.6815C101.561 94.3542 100.351 94.6905 98.8296 94.6905C97.7734 94.6905 96.8115 94.4988 95.9439 94.1153C95.0764 93.7255 94.4131 93.1942 93.9542 92.5215C93.5015 91.8488 93.2752 91.0693 93.2752 90.1828H96.1137C96.1137 91.698 97.019 92.4555 98.8296 92.4555C99.5023 92.4555 100.027 92.3204 100.404 92.05C100.782 91.7734 100.97 91.3899 100.97 90.8995Z" fill="white"/>
</svg>
